<svg width="512" height="512" xmlns="http://www.w3.org/2000/svg" xmlns:xlink="http://www.w3.org/1999/xlink" xml:space="preserve"><defs><symbol id="a" viewBox="0 0 344 59" xmlns="http://www.w3.org/2000/svg" xmlns:xlink="http://www.w3.org/1999/xlink"><rect fill="rgba(255, 255, 255, 0)" height="100%" width="100%"/><path d="M-50-50H50V50H-50V-50z" fill="#FFF" fill-opacity="0" transform="translate(50 50)"/><path d="M-50-50H50V50H-50V-50z" fill="#FFF" fill-opacity="0" transform="matrix(.45 0 0 .76 156.41 369.75)"/><path d="M-50-50V50H50V-50H-50z" fill="#FFF" stroke="#000" stroke-width="0" transform="matrix(2.41 0 0 .2 120.5 10)"/><path d="M-50-50V50H50V-50H-50z" fill="#FFF" stroke="#000" stroke-width="0" transform="matrix(.7 0 0 .2 310.18 10)"/><path d="M-50-50V50H50V-50H-50z" fill="#FFF" stroke="#000" stroke-width="0" transform="matrix(-2.41 0 0 -.2 224.68 50)"/><path d="M-50-50V50H50V-50H-50z" fill="#FFF" stroke="#000" stroke-width="0" transform="matrix(-.7 0 0 -.2 35 50)"/></symbol></defs><g class="layer"><path d="M498.294 57.299c-5.828-21.776-22.942-38.888-44.718-44.717C414.15 2.006 255.972 2.006 255.972 2.006s-158.174 0-197.603 10.576C36.593 18.41 19.48 35.523 13.652 57.299 3.076 96.728 3.076 179.042 3.076 179.042s0 82.315 10.576 121.744c5.829 21.776 22.941 38.888 44.717 44.716 39.429 10.576 197.603 10.576 197.603 10.576s158.177 0 197.604-10.576c21.776-5.828 38.89-22.94 44.718-44.716 10.576-39.43 10.576-121.744 10.576-121.744s-.042-82.314-10.576-121.743z" fill="red"/><path d="M0 .5h512v512H0V.5z" fill="transparent"/><path d="M43.788 371h424.427v131.32H43.788V371z"/><use transform="matrix(.73608 0 0 .96217 -75.99 -485.065)" x="194.144" xlink:href="#a" y="702"/><path d="m205.345 255.086 131.404-75.86-131.404-75.86v151.72z" fill="#FFF"/></g></svg>